<?xml version="1.0" encoding="UTF-8"?>
<svg width="30px" height="30px" viewBox="0 0 30 30" version="1.1" xmlns="http://www.w3.org/2000/svg" xmlns:xlink="http://www.w3.org/1999/xlink">
    <!-- Generator: Sketch 43 (38999) - http://www.bohemiancoding.com/sketch -->
    <title>Icon</title>
    <desc>Created with Sketch.</desc>
    <defs></defs>
    <g id="FIELD" stroke="none" stroke-width="1" fill="none" fill-rule="evenodd">
        <g id="#4" transform="translate(-690.000000, -430.000000)" fill="#62717A">
            <g id="Video">
                <path d="M704.746094,448.125 C704.746094,447.96875 704.667969,447.792969 704.550781,447.675781 L702.324219,445.449219 C702.207031,445.332031 702.03125,445.253906 701.875,445.253906 C701.71875,445.253906 701.542969,445.332031 701.425781,445.449219 L694.941406,451.933594 L692.128906,449.121094 C691.894531,448.886719 691.582031,448.75 691.25,448.75 C690.566406,448.75 690,449.316406 690,450 L690,458.75 C690,459.433594 690.566406,460 691.25,460 L700,460 C700.683594,460 701.25,459.433594 701.25,458.75 C701.25,458.417969 701.113281,458.105469 700.878906,457.871094 L698.066406,455.058594 L704.550781,448.574219 C704.667969,448.457031 704.746094,448.28125 704.746094,448.125 L704.746094,448.125 Z M720,431.25 C720,430.566406 719.433594,430 718.75,430 L710,430 C709.316406,430 708.75,430.566406 708.75,431.25 C708.75,431.582031 708.886719,431.894531 709.121094,432.128906 L711.933594,434.941406 L705.449219,441.425781 C705.332031,441.542969 705.253906,441.71875 705.253906,441.875 C705.253906,442.03125 705.332031,442.207031 705.449219,442.324219 L707.675781,444.550781 C707.792969,444.667969 707.96875,444.746094 708.125,444.746094 C708.28125,444.746094 708.457031,444.667969 708.574219,444.550781 L715.058594,438.066406 L717.871094,440.878906 C718.105469,441.113281 718.417969,441.25 718.75,441.25 C719.433594,441.25 720,440.683594 720,440 L720,431.25 Z" id="Icon"></path>
            </g>
        </g>
    </g>
</svg>